<svg xmlns="http://www.w3.org/2000/svg" viewBox="0 0 40 40">
    <g transform="translate(0, -50)">
        <path fill="#9aca3d" d="M11.52,73.62c-2.52,0-4.43-.54-6.07-2.19l2.1-2.1c1.05,1.05,2.47,1.4,4.01,1.4,1.91,0,2.94-.72,2.94-2.05,0-.58-.16-1.07-.51-1.4-.33-.3-.7-.47-1.47-.58l-2.01-.28c-1.42-.21-2.47-.65-3.22-1.38-.8-.79-1.19-1.87-1.19-3.27,0-2.96,2.19-5.04,5.79-5.04,2.29,0,3.94.56,5.37,1.94l-2.05,2.03c-1.05-1-2.31-1.14-3.41-1.14-1.73,0-2.57.96-2.57,2.1,0,.42.14.86.49,1.19.33.3.86.56,1.54.65l1.96.28c1.52.21,2.47.63,3.17,1.28.89.84,1.28,2.05,1.28,3.52,0,3.22-2.68,5.04-6.16,5.04"></path>
        <polygon fill="#9aca3d" points="24.6 53.66 24.6 50.73 2.93 50.73 0 53.66 0 76.71 2.93 79.64 17.59 79.64 22.95 89.96 26.25 89.96 33.13 76.71 29.83 76.71 24.6 86.78 19.37 76.71 2.93 76.71 2.93 53.66 24.6 53.66"></polygon>
    </g>
</svg>